<?xml version="1.0" encoding="utf-8"?>
<!-- Generator: Adobe Illustrator 22.0.0, SVG Export Plug-In . SVG Version: 6.00 Build 0)  -->
<svg version="1.1" id="图层_1" xmlns="http://www.w3.org/2000/svg" xmlns:xlink="http://www.w3.org/1999/xlink" x="0px" y="0px"
	 viewBox="0 0 175 161.8" style="enable-background:new 0 0 175 161.8;" xml:space="preserve">
<style type="text/css">
	.st0{fill:#819292;}
	.st1{fill:#D73949;}
	.st2{fill:#0CA294;}
	.st3{fill:#3796C7;}
	.st4{fill:#35A0D6;}
	.st5{fill:#D07727;}
	.st6{fill:#D97B24;}
</style>
<path class="st0" d="M7.2,153.4V0H0v161.8h175v-8.4L7.2,153.4L7.2,153.4z"/>
<path class="st1" d="M41.9,15.4v-5.1h-2.1v5.1h-0.1v1.8h0.1v5.1h2.1v-5.1h9.5v15.5h39.5L91,17.2h9.8v5.1h2.1V10.4h-2.1v5.1H91
	L91.1,0H51.4v15.5L41.9,15.4L41.9,15.4z M86.9,3.6l-0.2,25.6H55.6V3.6H86.9z"/>
<path class="st2" d="M98.8,56.3v-5.1h-2.1v5.1h-0.1v1.8h0.1v5.1h2.1v-5.1h9.6v15.5h27l0.1-15.5h9.8v5.1h2.1v-12h-2.1v5.1h-9.8
	l0.1-15.5h-27.1v15.5H98.8L98.8,56.3z M131.3,44.4L131.2,70h-18.6V44.4H131.3z"/>
<path class="st3" d="M41.3,96.7v1.8h-2.1V114h64.4l0.2-15.5h-3v-1.8h3l0.2-15.5H39.2v15.5H41.3L41.3,96.7z M61.6,83v1.8h38.2
	l-0.3,25.6H61.6v1.8h-4.2v-1.8h-14V84.8h14V83C57.4,83,61.6,83,61.6,83z"/>
<path class="st4" d="M100.9,98.5h17v5.1h2.1V91.7h-2.1v5.1h-17.1L100.9,98.5L100.9,98.5z M41.3,96.7H29.7v-5h-2.1v5.1h-0.1v1.8h0.1
	v5.1h2.1v-5.1h11.6V96.7z"/>
<path class="st5" d="M102.7,136.3v1.8h-1.2v15.5h20.1l0.1-15.5h-2.3v-1.8h2.2l0.1-15.5h-20.2v15.5H102.7z M117.5,124.4l-0.1,25.6
	h-11.8v-25.6H117.5z"/>
<path class="st6" d="M119.4,138.1h12v5.1h2.1v-11.9h-2.1v5.1h-12V138.1z M102.7,136.3H72.4v-5.1h-2v5.1h-0.1v1.8h0.1v5.1h2v-5.1
	h30.3V136.3z"/>
<path class="st4" d="M57.4,110.4v1.8h4.2V83h-4.2v1.8V110.4z"/>
</svg>
