<?xml version="1.0" encoding="utf-8"?>
<!-- Generator: Adobe Illustrator 22.0.0, SVG Export Plug-In . SVG Version: 6.00 Build 0)  -->
<svg version="1.1" id="图层_1" xmlns="http://www.w3.org/2000/svg" xmlns:xlink="http://www.w3.org/1999/xlink" x="0px" y="0px"
	 viewBox="0 0 175 161.8" style="enable-background:new 0 0 175 161.8;" xml:space="preserve">
<style type="text/css">
	.st0{fill:#819292;}
	.st1{fill:#D73949;}
	.st2{fill:#0CA294;}
	.st3{fill:#3796C7;}
	.st4{fill:#35A0D6;}
	.st5{fill:#D07727;}
	.st6{fill:#D97B24;}
</style>
<path class="st0" d="M7.2,153.4V0H0v161.8h175v-8.4H7.2z"/>
<path class="st1" d="M27.7,126.5h-5.1v2.1h5.1v0.1h1.8v-0.1h5.1v-2.1h-5.1V117H45V77.5l-15.5-0.1v-9.8h5.1v-2.1H22.7v2.1h5.1v9.8
	l-15.5-0.1V117h15.5L27.7,126.5L27.7,126.5z M15.9,81.5l25.6,0.2v31.1H15.9V81.5z"/>
<path class="st2" d="M68.6,69.6h-5.1v2.1h5.1v0.1h1.8v-0.1h5.1v-2.1h-5.1v-9.6h15.5V33l-15.5-0.1v-9.8h5.1v-2.1H63.5v2.1h5.1v9.8
	l-15.5-0.1v27.1h15.5V69.6L68.6,69.6z M56.7,37.1l25.6,0.1v18.6H56.7V37.1z"/>
<path class="st3" d="M109,127.1h1.8v2.1h15.5V64.8l-15.5-0.2v3H109v-3l-15.5-0.2v64.8H109L109,127.1L109,127.1z M95.3,106.8h1.8
	V68.6l25.6,0.3v37.9h1.8v4.2h-1.8v14H97.1v-14h-1.8V106.8z"/>
<path class="st4" d="M110.8,67.5V50.5h5.1v-2.1H104v2.1h5.1v17.1H110.8z M109,127.1v11.6H104v2.1h5.1v0.1h1.8v-0.1h5.1v-2.1h-5.1
	v-11.6H109z"/>
<path class="st5" d="M148.6,65.7h1.8v1.2h15.5V46.8l-15.5-0.1V49h-1.8v-2.2l-15.5-0.1v20.2h15.5C148.6,66.9,148.6,65.7,148.6,65.7z
	 M136.7,50.9l25.6,0.1v11.8h-25.6V50.9z"/>
<path class="st6" d="M150.4,49V37h5.1v-2.1h-11.9V37h5.1v12H150.4z M148.6,65.7V96h-5.1V98h5.1v0.1h1.8V98h5.1V96h-5.1V65.7H148.6z"
	/>
<path class="st4" d="M122.7,111h1.8v-4.2H95.3v4.2h1.8H122.7z"/>
</svg>
