<?xml version="1.0" encoding="utf-8"?>
<!-- Generator: Adobe Illustrator 22.0.0, SVG Export Plug-In . SVG Version: 6.00 Build 0)  -->
<svg version="1.1" id="图层_1" xmlns="http://www.w3.org/2000/svg" xmlns:xlink="http://www.w3.org/1999/xlink" x="0px" y="0px"
	 viewBox="0 0 168 163.5" style="enable-background:new 0 0 168 163.5;" xml:space="preserve">
<style type="text/css">
	.st0{fill:#9A60B4;}
	.st1{fill:#91CC75;}
	.st2{fill:#FC8452;}
	.st3{fill:#5470C6;}
	.st4{fill:#EA7CCC;}
	.st5{fill:#FAC858;}
</style>
<path class="st0" d="M11.2,91.5c1.3,0,2.6-0.2,3.7-0.6s2.3-1,3.3-1.8l0.1-0.1c0.6-0.5,1.1-1.1,1.6-1.6c0.8-1,1.4-2.1,1.8-3.3
	c0.4-1.2,0.6-2.4,0.6-3.7c0-1.5-0.3-3-0.9-4.4c-0.6-1.4-1.4-2.6-2.4-3.6c-1-1-2.2-1.8-3.6-2.4c-1.4-0.6-2.8-0.9-4.4-0.9l0,0
	c-1.5,0-3,0.3-4.4,0.9c-1.4,0.6-2.6,1.4-3.6,2.4c-1,1-1.8,2.2-2.4,3.6S0,78.8,0,80.3c0,1.5,0.3,3,0.9,4.4c0.6,1.4,1.4,2.6,2.4,3.6
	s2.2,1.8,3.6,2.4C8.2,91.2,9.7,91.5,11.2,91.5z"/>
<path class="st1" d="M167.1,75.9c-0.6-1.4-1.4-2.6-2.4-3.6c-1-1-2.2-1.8-3.6-2.4s-2.8-0.9-4.4-0.9l0,0c-1.5,0-3,0.3-4.4,0.9
	c-1.4,0.6-2.6,1.4-3.6,2.4s-1.8,2.2-2.4,3.6s-0.9,2.8-0.9,4.4c0,1.5,0.3,3,0.9,4.4c0.6,1.4,1.4,2.6,2.4,3.6c1,1,2.2,1.8,3.6,2.4
	c1.4,0.6,2.8,0.9,4.4,0.9c1.3,0,2.6-0.2,3.7-0.6c1.2-0.4,2.3-1,3.3-1.8l0.1-0.1c0.6-0.5,1.1-1.1,1.6-1.6c0.8-1,1.4-2.1,1.8-3.3
	c0.4-1.2,0.6-2.4,0.6-3.7C168,78.8,167.7,77.3,167.1,75.9z"/>
<path class="st2" d="M6.1,57.8c0.6,1.3,1.4,2.5,2.4,3.5c1.1,1.1,2.3,1.9,3.7,2.4c1.2,0.5,2.5,0.7,3.7,0.8c1.3,0,2.5-0.1,3.7-0.5
	l0.2-0.1c0.7-0.3,1.4-0.6,2.1-0.9c1.1-0.6,2.1-1.4,2.9-2.3c0.8-1,1.5-2,2-3.2c0.6-1.4,0.8-2.9,0.8-4.4s-0.3-2.9-0.9-4.2
	s-1.4-2.5-2.4-3.5c-1.1-1.1-2.3-1.9-3.7-2.4l0,0c-1.4-0.6-2.9-0.8-4.4-0.8s-2.9,0.3-4.2,0.9c-1.3,0.6-2.5,1.4-3.5,2.4
	c-1.1,1.1-1.9,2.3-2.4,3.7c-0.6,1.4-0.8,2.9-0.8,4.4C5.2,55.1,5.5,56.5,6.1,57.8z"/>
<path class="st3" d="M161.9,102.7c-0.6-1.3-1.4-2.5-2.4-3.5c-1.1-1.1-2.3-1.9-3.7-2.4l0,0c-1.4-0.6-2.9-0.8-4.4-0.8
	s-2.9,0.3-4.2,0.9c-1.3,0.6-2.5,1.4-3.5,2.4c-1.1,1.1-1.9,2.3-2.4,3.7c-0.6,1.4-0.8,2.9-0.8,4.4c0,1.5,0.3,2.9,0.9,4.2
	c0.6,1.3,1.4,2.5,2.4,3.5c1.1,1.1,2.3,1.9,3.7,2.4c1.2,0.5,2.5,0.7,3.7,0.8c1.3,0,2.5-0.1,3.7-0.5l0.2-0.1c0.7-0.3,1.4-0.6,2.1-0.9
	c1.1-0.6,2.1-1.4,2.9-2.3c0.8-1,1.5-2,2-3.2c0.6-1.4,0.8-2.9,0.8-4.4C162.8,105.4,162.5,104,161.9,102.7z"/>
<path class="st4" d="M97.8,5.2c-0.5-1.1-1.1-2-1.8-2.7c-0.8-0.8-1.7-1.4-2.7-1.8S91.1,0,89.9,0c-1.2,0-2.3,0.2-3.3,0.7
	c-1.1,0.5-2,1.1-2.7,1.8S82.5,4.2,82,5.2c-0.5,1.1-0.7,2.2-0.7,3.3c0,1,0.2,2,0.5,2.9c0.3,0.9,0.8,1.7,1.4,2.5l0.1,0.1
	c0.4,0.4,0.8,0.8,1.2,1.2c0.7,0.6,1.6,1.1,2.5,1.4c0.9,0.3,1.9,0.5,2.9,0.5c1.2,0,2.3-0.2,3.3-0.7c1.1-0.5,2-1.1,2.7-1.8
	c0.8-0.8,1.4-1.7,1.8-2.7c0.5-1.1,0.7-2.2,0.7-3.3l0,0C98.5,7.4,98.3,6.3,97.8,5.2z"/>
<path class="st5" d="M88,153.6c-0.4-0.9-0.9-1.7-1.5-2.3s-1.4-1.2-2.3-1.5c-0.9-0.4-1.8-0.6-2.8-0.6c-1,0-1.9,0.2-2.8,0.6
	c-0.9,0.4-1.7,0.9-2.3,1.5s-1.2,1.4-1.5,2.3c-0.4,0.9-0.6,1.8-0.6,2.8c0,0.8,0.1,1.6,0.4,2.4c0.3,0.8,0.7,1.5,1.2,2.1l0.1,0.1
	c0.3,0.4,0.7,0.7,1,1c0.6,0.5,1.3,0.9,2.1,1.2c0.8,0.3,1.6,0.4,2.4,0.4c1,0,1.9-0.2,2.8-0.6c0.9-0.4,1.7-0.9,2.3-1.5
	c0.6-0.6,1.2-1.4,1.5-2.3c0.4-0.9,0.6-1.8,0.6-2.8l0,0C88.6,155.4,88.4,154.4,88,153.6z"/>
<path class="st4" d="M128.8,32c0.4,0.7,0.8,1.4,1.4,2c0.7,0.7,1.5,1.2,2.4,1.6c0.9,0.4,1.8,0.5,2.7,0.5c0.9,0,1.8-0.2,2.7-0.5
	c0.9-0.4,1.7-0.9,2.4-1.6v0c0.7-0.7,1.2-1.5,1.6-2.4c0.4-0.9,0.5-1.8,0.5-2.7s-0.2-1.8-0.5-2.7c-0.4-0.9-0.9-1.7-1.6-2.4
	c-0.7-0.7-1.5-1.2-2.4-1.6c-0.9-0.4-1.8-0.5-2.7-0.5c-0.9,0-1.8,0.2-2.7,0.5c-0.9,0.4-1.7,0.9-2.4,1.6c-0.6,0.6-1.1,1.3-1.4,2
	c-0.4,0.7-0.6,1.5-0.7,2.3l0,0.1c0,0.5,0,1,0,1.5C128.3,30.5,128.5,31.2,128.8,32z"/>
<path class="st5" d="M42.2,121.4c-1.3-1.3-2.7-2.2-4.3-2.9c-1.6-0.7-3.3-1-4.9-1c-1.6,0-3.3,0.3-4.9,1c-1.6,0.7-3.1,1.6-4.3,2.9
	c-1.1,1.1-1.9,2.3-2.6,3.6c-0.6,1.3-1,2.7-1.2,4.2l0,0.2c-0.1,0.9,0,1.8,0,2.7c0.2,1.4,0.5,2.8,1.2,4.2c0.6,1.3,1.5,2.5,2.6,3.6
	c1.3,1.3,2.7,2.2,4.3,2.9c1.6,0.7,3.3,1,4.9,1c1.6,0,3.3-0.3,4.9-1s3.1-1.6,4.3-2.9v0c1.3-1.3,2.2-2.7,2.9-4.3c0.7-1.6,1-3.3,1-4.9
	c0-1.6-0.3-3.3-1-4.9C44.4,124.1,43.4,122.6,42.2,121.4z"/>
<path class="st4" d="M141.3,46.7l-0.1,0.2c-0.3,0.7-0.6,1.4-0.9,2.1c-0.3,1.2-0.5,2.4-0.4,3.7c0.1,1.3,0.4,2.5,0.9,3.7
	c0.6,1.4,1.4,2.6,2.5,3.7c1.1,1,2.3,1.8,3.6,2.4c1.3,0.5,2.7,0.8,4.2,0.8c1.5,0,3-0.3,4.4-0.9l0,0c1.4-0.6,2.6-1.4,3.7-2.5
	c1-1.1,1.8-2.3,2.4-3.6s0.8-2.7,0.8-4.2c0-1.5-0.3-3-0.9-4.4c-0.6-1.4-1.4-2.6-2.5-3.7c-1.1-1-2.3-1.8-3.6-2.4
	c-1.3-0.5-2.7-0.8-4.2-0.8c-1.5,0-3,0.3-4.4,0.9c-1.2,0.5-2.3,1.2-3.2,2C142.6,44.7,141.8,45.6,141.3,46.7z"/>
<path class="st0" d="M27.3,112.7c0.5-1.3,0.8-2.7,0.8-4.2c0-1.5-0.3-3-0.9-4.4c-0.6-1.4-1.4-2.6-2.5-3.7c-1.1-1-2.3-1.8-3.6-2.4
	c-1.3-0.5-2.7-0.8-4.2-0.8c-1.5,0-3,0.3-4.4,0.9c-1.2,0.5-2.3,1.2-3.2,2C8.4,101,7.6,102,7,103.1L7,103.3c-0.3,0.7-0.6,1.4-0.9,2.1
	c-0.3,1.2-0.5,2.4-0.4,3.7c0.1,1.3,0.4,2.5,0.9,3.7c0.6,1.4,1.4,2.6,2.5,3.7c1.1,1,2.3,1.8,3.6,2.4c1.3,0.5,2.7,0.8,4.2,0.8
	c1.5,0,3-0.3,4.4-0.9l0,0c1.4-0.6,2.6-1.4,3.7-2.5C25.9,115.2,26.7,114,27.3,112.7z"/>
<path class="st4" d="M108.2,20.1c0.4,0.8,1,1.4,1.6,2c0.7,0.6,1.4,1,2.2,1.4c1,0.4,2,0.6,3,0.6c1,0,2-0.2,2.9-0.6s1.7-0.9,2.5-1.7
	c0.7-0.7,1.3-1.6,1.7-2.6l0,0c0.4-1,0.6-2,0.6-3c0-1-0.2-2-0.6-2.9c-0.4-0.9-0.9-1.7-1.7-2.5c-0.7-0.7-1.6-1.3-2.6-1.7
	c-1-0.4-2-0.6-3-0.6c-1,0-2,0.2-2.9,0.6c-0.9,0.4-1.7,0.9-2.5,1.7c-0.7,0.7-1.3,1.6-1.7,2.6c-0.3,0.8-0.5,1.7-0.6,2.6
	c0,0.9,0.1,1.7,0.3,2.6l0,0.1C107.7,19.2,107.9,19.6,108.2,20.1L108.2,20.1z"/>
<path class="st5" d="M64.4,144.2c-0.5-1.1-1.2-2.1-2.1-3c-0.9-0.9-2-1.6-3.2-2.1c-1.2-0.5-2.4-0.7-3.7-0.7c-1.3,0-2.5,0.3-3.6,0.7
	s-2.1,1.2-3,2.1c-0.9,0.9-1.6,2-2.1,3.2c-0.4,1-0.7,2.1-0.7,3.2c0,1.1,0.1,2.1,0.4,3.2l0.1,0.2c0.2,0.6,0.5,1.2,0.8,1.8
	c0.5,0.9,1.2,1.8,2,2.5c0.8,0.7,1.7,1.3,2.8,1.7c1.2,0.5,2.4,0.7,3.7,0.7c1.3,0,2.5-0.3,3.6-0.7c1.1-0.5,2.1-1.2,3-2.1
	c0.9-0.9,1.6-2,2.1-3.2l0,0c0.5-1.2,0.7-2.4,0.7-3.7C65.1,146.5,64.8,145.3,64.4,144.2z"/>
<path class="st5" d="M143.4,123.8c-0.9-0.9-2-1.7-3.1-2.2c-1.1-0.5-2.3-0.9-3.6-1l-0.2,0c-0.8,0-1.5,0-2.3,0c-1.2,0.1-2.4,0.5-3.6,1
	c-1.1,0.5-2.2,1.3-3.1,2.2c-1.1,1.1-1.9,2.3-2.4,3.7c-0.6,1.4-0.8,2.8-0.8,4.2c0,1.4,0.3,2.8,0.8,4.2c0.6,1.4,1.4,2.6,2.4,3.7h0
	c1.1,1.1,2.3,1.9,3.7,2.4c1.4,0.6,2.8,0.8,4.2,0.8c1.4,0,2.8-0.3,4.2-0.8c1.4-0.6,2.6-1.4,3.7-2.4c1.1-1.1,1.9-2.3,2.4-3.7
	c0.6-1.4,0.8-2.8,0.8-4.2c0-1.4-0.3-2.8-0.8-4.2C145.3,126.1,144.5,124.9,143.4,123.8z"/>
<path class="st2" d="M40.5,20.9c-0.9-0.9-2-1.7-3.1-2.2c-1.1-0.5-2.3-0.9-3.6-1l-0.2,0c-0.8,0-1.5,0-2.3,0c-1.2,0.1-2.4,0.5-3.6,1
	c-1.1,0.5-2.2,1.3-3.1,2.2c-1.1,1.1-1.9,2.3-2.4,3.7c-0.6,1.4-0.8,2.8-0.8,4.2c0,1.4,0.3,2.8,0.8,4.2c0.6,1.4,1.4,2.6,2.4,3.7h0
	c1.1,1.1,2.3,1.9,3.7,2.4c1.4,0.6,2.8,0.8,4.2,0.8c1.4,0,2.8-0.3,4.2-0.8c1.4-0.6,2.6-1.4,3.7-2.4c1.1-1.1,1.9-2.3,2.4-3.7
	c0.6-1.4,0.8-2.8,0.8-4.2c0-1.4-0.3-2.8-0.8-4.2C42.3,23.2,41.5,22,40.5,20.9z"/>
<path class="st5" d="M121,139.5c-0.9-0.9-1.8-1.7-3-2.3l-0.2-0.1c-0.7-0.3-1.4-0.6-2.1-0.8c-1.2-0.3-2.4-0.5-3.7-0.4
	c-1.3,0.1-2.5,0.4-3.7,0.9c-1.4,0.6-2.6,1.4-3.6,2.5c-1,1.1-1.8,2.3-2.3,3.6c-0.5,1.3-0.8,2.7-0.8,4.2c0,1.5,0.3,3,0.9,4.4l0,0
	c0.6,1.4,1.4,2.6,2.5,3.6c1.1,1,2.3,1.8,3.6,2.3c1.3,0.5,2.7,0.8,4.2,0.8c1.5,0,3-0.3,4.4-0.9c1.4-0.6,2.6-1.4,3.6-2.5
	c1-1.1,1.8-2.3,2.3-3.6c0.5-1.3,0.8-2.7,0.8-4.2c0-1.5-0.3-3-0.9-4.4C122.6,141.5,121.9,140.4,121,139.5z"/>
<path class="st2" d="M47.4,21.5c1.1,1,2.3,1.8,3.6,2.3s2.7,0.8,4.2,0.8c1.5,0,3-0.3,4.4-0.9c1.4-0.6,2.6-1.4,3.6-2.5
	c1-1.1,1.8-2.3,2.3-3.6s0.8-2.7,0.8-4.2s-0.3-3-0.9-4.4c-0.5-1.2-1.2-2.3-2.1-3.2c-0.9-0.9-1.8-1.7-3-2.3l-0.2-0.1
	c-0.7-0.3-1.4-0.6-2.1-0.8c-1.2-0.3-2.4-0.5-3.7-0.4c-1.3,0.1-2.5,0.4-3.7,0.9c-1.4,0.6-2.6,1.4-3.6,2.5c-1,1.1-1.8,2.3-2.3,3.6
	C44.3,10.6,44,12,44,13.5s0.3,3,0.9,4.4l0,0C45.5,19.3,46.4,20.5,47.4,21.5z"/>
</svg>
