<?xml version="1.0" encoding="utf-8"?>
<!-- Generator: Adobe Illustrator 22.0.0, SVG Export Plug-In . SVG Version: 6.00 Build 0)  -->
<svg version="1.1" id="图层_1" xmlns="http://www.w3.org/2000/svg" xmlns:xlink="http://www.w3.org/1999/xlink" x="0px" y="0px"
	 viewBox="0 0 117.2 117.2" style="enable-background:new 0 0 117.2 117.2;" xml:space="preserve">
<style type="text/css">
	.st0{fill:#1296DB;}
</style>
<path class="st0" d="M58.6,5.9c7.1,0,14,1.4,20.5,4.1c6.3,2.7,11.9,6.5,16.8,11.3s8.7,10.5,11.3,16.8c2.8,6.5,4.1,13.4,4.1,20.5
	s-1.4,14-4.1,20.5c-2.7,6.3-6.5,11.9-11.3,16.8c-4.8,4.8-10.5,8.7-16.8,11.3c-6.5,2.8-13.4,4.1-20.5,4.1s-14-1.4-20.5-4.1
	c-6.3-2.7-11.9-6.5-16.8-11.3C16.5,91,12.7,85.4,10,79.1c-2.8-6.5-4.1-13.4-4.1-20.5s1.4-14,4.1-20.5c2.7-6.3,6.5-11.9,11.3-16.8
	S31.8,12.7,38.1,10C44.6,7.2,51.5,5.9,58.6,5.9 M58.6,0C26.2,0,0,26.2,0,58.6s26.2,58.6,58.6,58.6s58.6-26.2,58.6-58.6S91,0,58.6,0z
	"/>
<path class="st0" d="M84,73.3c0-6.2-3.2-11.2-9.2-14.6c-1.6-0.9-3.4-1.7-5.4-2.4V34.3c5.9,3.4,7.3,9.2,7.3,9.5
	c0.3,1.6,1.9,2.6,3.5,2.3c1.6-0.3,2.6-1.9,2.3-3.5c0-0.2-0.9-4.3-4.2-8.4c-1.8-2.3-4.7-4.8-8.8-6.4v-9.2c0-1.6-1.3-2.9-2.9-2.9
	s-2.9,1.3-2.9,2.9v7.7c-1.4-0.2-2.8-0.3-4.4-0.3c-1.9,0-3.7,0.1-5.4,0.3v-7.7c0-1.6-1.3-2.9-2.9-2.9s-2.9,1.3-2.9,2.9v9.1
	c-2.9,1-5.4,2.5-7.3,4.4c-4.3,4.2-4.8,9.2-4.8,11.2c0,3.8,1.5,9.2,8.4,12.8c1.2,0.6,2.4,1.1,3.7,1.6v25.5c-1.1-0.5-2.1-1.1-3-1.7
	c-3.2-2.2-5.2-5.3-5.8-8.7c-0.3-1.6-1.8-2.7-3.4-2.4c-1.6,0.3-2.7,1.8-2.4,3.4c0.8,4.9,3.7,9.4,8.2,12.5c1.9,1.3,4,2.4,6.4,3.2v9.3
	c0,1.6,1.3,2.9,2.9,2.9c1.6,0,2.9-1.3,2.9-2.9v-7.9c1.9,0.3,3.9,0.4,6.1,0.4c1.3,0,2.5-0.1,3.7-0.2v7.6c0,1.6,1.3,2.9,2.9,2.9
	s2.9-1.3,2.9-2.9v-8.8C78.6,86.9,84,79.9,84,73.3z M59.1,31.8c1.6,0,3.1,0.1,4.4,0.4v22.6c-1.3-0.3-2.6-0.5-4-0.7
	c-2.1-0.3-4-0.6-5.8-1V32.2C55.3,32,57.1,31.8,59.1,31.8z M41.5,43.2c0-1.3,0.4-6.3,6.3-9.2v17.3C43.6,49.4,41.5,46.7,41.5,43.2z
	 M59.8,85.4c-2.1,0-4.2-0.2-6.1-0.5V59.1c1.8,0.4,3.5,0.6,5,0.8c1.6,0.2,3.2,0.5,4.8,0.9v24.4C62.3,85.3,61.1,85.4,59.8,85.4z
	 M69.3,83.6v-21c5,2.1,8.8,5.4,8.8,10.8C78.1,76.8,75.1,81.2,69.3,83.6L69.3,83.6z"/>
</svg>
