<?xml version="1.0" encoding="utf-8"?>
<!-- Generator: Adobe Illustrator 22.0.0, SVG Export Plug-In . SVG Version: 6.00 Build 0)  -->
<svg version="1.1" id="图层_1" xmlns="http://www.w3.org/2000/svg" xmlns:xlink="http://www.w3.org/1999/xlink" x="0px" y="0px"
	 viewBox="0 0 246 246" style="enable-background:new 0 0 246 246;" xml:space="preserve">
<style type="text/css">
	.st0{fill:#1296DB;}
	.st1{fill:#FFFFFF;}
</style>
<circle class="st0" cx="123" cy="123" r="123"/>
<g>
	<path class="st1" d="M39.7,205.5c-8.1,0-14.6-5.3-16.1-13.3c-0.3-1.3-0.3-2.7-0.3-3.7v-35.7c0-19.5,0-39.7,0-59.6
		c0-1.7,0.7-2.9,2.2-3.8h0C31.2,86,37,82.5,42.6,79.1l0.6-0.3c1.6-1,3.2-1.9,4.8-2.9l0.3-0.2c2.9-1.8,6-3.6,9-5.4l0.8-0.5V30
		c0-6.7,3.1-12,8.9-15.1c2.2-1.2,4.6-1.7,7.1-1.7h54.5c16.3,0,30.4,0,43.3,0c4.3,0,8.3,1.7,11.4,4.8c3,3.1,4.7,7.2,4.7,11.5
		c0,13.3,0,26.7,0,39.3v1l0.8,0.5c4,2.4,8.1,4.8,12.1,7.2l2.5,1.5c5.2,3.1,11,6.5,17,10.1c1.6,1,2.4,2.3,2.4,4.2
		c0,22.6,0,45.6,0,67.8V189c0,7.8-5.1,14.3-12.6,16c-1.2,0.3-2.6,0.4-4.2,0.4c-19.1,0-37.9,0-56.1,0l-71.2,0L39.7,205.5L39.7,205.5z
		 M38.6,96.5c-0.7,0.4-1.2,0.7-1.7,1L36,98v1c0,24.4,0,49.1,0,73.1v16.3c0,3.2,1.1,4.3,4.3,4.3h104.9l31.3,0h29.5
		c2.4,0,3.8-1.4,3.8-3.7v-26.3c0-20.9,0-42.6,0-63.9v-1l-0.8-0.5c-1.4-0.8-3.5-2.1-5.6-3.4l-1-0.6l-0.9,0.8
		c-22.3,18.6-46.5,38.8-76.3,63.6l-3.4,2.9c-0.1,0.1-0.2,0.2-0.4,0.3l-0.1,0c-0.1,0.1-0.2,0.1-0.2,0.2l-0.1,0.1l0,0l-0.2,0.2
		l-1.5,1.1L39.7,95.9C39.7,95.9,38.6,96.5,38.6,96.5z M74.2,26.1c-1.4,0.1-2.3,0.6-2.8,1.6c-0.4,0.7-0.6,1.8-0.6,2.8
		c0,6.1,0,12.2,0,18.4v0.2c0,6.2,0,12.4,0,18.5c0,12.5,0,25.5,0,37.1v0.8l0.6,0.5c9.5,7.9,19.3,16.1,29.1,24.2l7.6,6.3l11.4,9.5
		l8.5-7.1c4.9-4.1,9.8-8.2,14.8-12.3l0.3-0.3c10.3-8.6,21-17.5,31.4-26.2l0.6-0.5v-0.8c0-19.1,0-38.5,0-57.2V30.5
		c0-3.3-1.2-4.5-4.4-4.5H75.1l-0.1,0h-0.7L74.2,26.1C74.3,26.1,74.2,26.1,74.2,26.1z M51.3,88.9l6.7,5.6v-9.7
		C58,84.8,51.3,88.9,51.3,88.9z"/>
	<path class="st1" d="M134.6,34.2H167v11.4h-32.4V34.2z M79,75.8h88v11.5H79V75.8z M79,55h88v11.4H79V55z"/>
</g>
</svg>
