<?xml version="1.0" encoding="utf-8"?>
<!-- Generator: Adobe Illustrator 22.0.0, SVG Export Plug-In . SVG Version: 6.00 Build 0)  -->
<svg version="1.1" id="图层_1" xmlns="http://www.w3.org/2000/svg" xmlns:xlink="http://www.w3.org/1999/xlink" x="0px" y="0px"
	 viewBox="0 0 175.1 175.3" style="enable-background:new 0 0 175.1 175.3;" xml:space="preserve">
<style type="text/css">
	.st0{fill:#6C6E71;}
</style>
<path class="st0" d="M173.6,83.8c-0.3-0.4-0.6-0.7-0.9-1l-35-34.9c-2.4-2.4-6.4-2.4-8.9,0s-2.4,6.4,0,8.9l24.6,24.6H69.8l0,0
	c-3.6,0-6.4,2.9-6.4,6.4c0,3.6,2.9,6.4,6.4,6.4c0.1,0,0.1,0,0.1,0h83.6l-24.6,24.6c-2.4,2.4-2.4,6.3,0,8.7l0.1,0.1
	c2.4,2.4,6.3,2.4,8.7,0l35.5-35.5C175.6,89.9,175.7,86.2,173.6,83.8L173.6,83.8z"/>
<path class="st0" d="M97.3,143.7c-3.5,0-6.4,2.9-6.4,6.4v12.5H12.8V12.8H91v12.3c0,3.5,2.9,6.4,6.4,6.4s6.4-2.9,6.4-6.4V6.4
	c0-0.7-0.1-1.3-0.3-2c-0.8-2.6-3.2-4.5-6.1-4.5h-91C2.9,0,0,2.9,0,6.4v162.5c0,2.8,1.8,5.1,4.3,6c0.7,0.3,1.5,0.4,2.2,0.4H97
	c0.1,0,0.3,0,0.4,0c3.5,0,6.4-2.9,6.4-6.4v-18.8C103.7,146.6,100.9,143.7,97.3,143.7L97.3,143.7z"/>
<path class="st0" d="M37.7,87.8c0,3.6,2.9,6.4,6.4,6.4s6.4-2.9,6.4-6.4l0,0c0-3.6-2.9-6.4-6.4-6.4C40.6,81.3,37.7,84.2,37.7,87.8
	L37.7,87.8z"/>
</svg>
