<?xml version="1.0" encoding="utf-8"?>
<!-- Generator: Adobe Illustrator 22.0.0, SVG Export Plug-In . SVG Version: 6.00 Build 0)  -->
<svg version="1.1" id="图层_1" xmlns="http://www.w3.org/2000/svg" xmlns:xlink="http://www.w3.org/1999/xlink" x="0px" y="0px"
	 viewBox="0 0 164.9 174.9" style="enable-background:new 0 0 164.9 174.9;" xml:space="preserve">
<style type="text/css">
	.st0{fill:#979797;}
	.st1{fill:#91AAFF;}
	.st2{fill:#0839FF;}
</style>
<path class="st0" d="M133.3,148.5c-1.7,0-3.3,0.3-4.8,0.9L91.7,85.9l-3.5,2l36.8,63.4c-5.7,4.6-6.5,12.9-1.9,18.6s12.9,6.5,18.6,1.9
	c5.7-4.6,6.5-12.9,1.9-18.6C141.1,150.3,137.3,148.5,133.3,148.5L133.3,148.5z M133.3,170.8c-5,0-9.1-4.1-9.1-9.2
	c0-5,4.1-9.1,9.2-9.1c5,0,9.1,4.1,9.1,9.1C142.4,166.7,138.4,170.8,133.3,170.8z"/>
<path class="st0" d="M151.6,93.5c-5,0-9.5,2.8-11.8,7.2L96.6,87.1l-1.2,3.9l43.2,13.6c-1.2,7.2,3.7,14,10.9,15.2
	c7.2,1.2,14-3.7,15.2-10.9c1.2-7.2-3.7-14-10.9-15.2C153.1,93.6,152.4,93.5,151.6,93.5L151.6,93.5z M151.6,115.9
	c-5.1,0-9.2-4.1-9.2-9.1c0-5.1,4.1-9.2,9.1-9.2c5.1,0,9.2,4.1,9.2,9.1c0,0,0,0,0,0C160.8,111.8,156.7,115.9,151.6,115.9L151.6,115.9
	z M70.6,99L37,136.5c-3-2.1-6.8-2.8-10.4-1.9L20,118.1c6.3-3.7,8.4-11.9,4.6-18.2c-3.7-6.3-11.9-8.4-18.2-4.6
	c-6.3,3.7-8.4,11.9-4.6,18.2c2.9,5,8.8,7.4,14.4,6.1l6.6,16.4c-6.3,3.7-8.4,11.8-4.6,18.1c3.7,6.3,11.8,8.4,18.1,4.6
	s8.4-11.8,4.6-18.1c-0.3-0.5-0.6-1-1-1.4l33.7-37.5L70.6,99z M4.1,106.8c0-5.1,4.1-9.2,9.2-9.2s9.2,4.1,9.2,9.2
	c0,5.1-4.1,9.2-9.2,9.2l0,0C8.2,115.9,4.1,111.8,4.1,106.8z M29.6,156.6c-5.1,0-9.2-4.1-9.2-9.1c0-5.1,4.1-9.2,9.1-9.2
	c5.1,0,9.2,4.1,9.2,9.1c0,0,0,0,0,0C38.7,152.5,34.6,156.6,29.6,156.6z M94.8,80.3l21.7-48.7c8.4,3.1,17.8-1.3,20.9-9.7
	S136.2,4.1,127.7,1s-17.8,1.3-20.9,9.7c-2.5,7,0,14.8,6.1,19L91.1,78.7L94.8,80.3z M109.9,16.3c0-6.7,5.4-12.2,12.2-12.2
	c6.7,0,12.2,5.4,12.2,12.2s-5.4,12.2-12.2,12.2c0,0,0,0,0,0C115.4,28.5,109.9,23,109.9,16.3z"/>
<path class="st1" d="M87.5,113.9c-15.7,0-28.5-12.8-28.5-28.5S71.8,57,87.5,57S116,69.7,116,85.4S103.2,113.9,87.5,113.9z"/>
<path class="st2" d="M87.5,59c14.6,0,26.4,11.8,26.4,26.4s-11.9,26.4-26.4,26.4S61.1,100,61.1,85.4S73,59,87.5,59 M87.5,54.9
	C70.7,54.9,57,68.6,57,85.4s13.7,30.5,30.5,30.5S118,102.3,118,85.4S104.4,54.9,87.5,54.9z"/>
</svg>
