<?xml version="1.0" encoding="utf-8"?>
<!-- Generator: Adobe Illustrator 22.0.0, SVG Export Plug-In . SVG Version: 6.00 Build 0)  -->
<svg version="1.1" id="图层_1" xmlns="http://www.w3.org/2000/svg" xmlns:xlink="http://www.w3.org/1999/xlink" x="0px" y="0px"
	 viewBox="0 0 257.2 105.6" style="enable-background:new 0 0 257.2 105.6;" xml:space="preserve">
<style type="text/css">
	.st0{fill:#23DE7F;}
	.st1{fill:#216DEF;}
</style>
<path class="st0" d="M58.2,40.6l-3.5,7.9c0,0-15.7,4.9-18.8,17.8c-0.6,2.4-2.4,17.5,13.3,18.4L122,85l-0.8,3.7
	c0,0-79.8-0.3-80.6-0.3c-0.8,0-14.9-3.1-16.8-14.4C22.9,68.8,21.2,48.7,58.2,40.6z"/>
<path class="st1" d="M45.8,39.9l14.9-2.6c0,0,11-15.5,24.4-16.3c4.5-0.3,18.4-0.6,24.9,10.8c0,0-11.5,3.3-22,12.9
	c0,0,26.1-16.9,46.9,0.4h8.6c0,0-7.4-13.9-28.8-13.5c0,0-5.4-15.5-22.9-17c-5.8-0.5-8.4-0.1-10.8,0C80.1,14.6,61.6,16.6,45.8,39.9z"
	/>
<g>
	<g>
		<path class="st1" d="M88.8,80.2h-6.1L82,58.7L71.3,80.2h-6.2L64,50.8h5.9l0.3,20.6l10.1-20.6h6.6l0.7,20.4l9.7-20.4h5.7L88.8,80.2
			z"/>
		<path class="st1" d="M101.5,68.7c0-1.7,0.3-3.6,0.8-5.5c0.7-2.6,1.7-4.8,3.1-6.7s3.2-3.4,5.3-4.5c2.1-1.1,4.5-1.7,7.3-1.7
			c3.6,0,6.6,1.1,8.8,3.4c2.2,2.3,3.4,5.3,3.4,9c0,3.1-0.7,6.1-2.2,9s-3.4,5.1-5.9,6.7s-5.3,2.3-8.5,2.3c-2.7,0-5-0.6-6.9-1.9
			c-1.9-1.2-3.2-2.8-4-4.6S101.5,70.6,101.5,68.7z M107.5,68.6c0,2,0.6,3.7,1.8,5.1c1.2,1.4,2.8,2,4.9,2c1.6,0,3.2-0.5,4.7-1.6
			s2.7-2.7,3.7-4.9c1-2.2,1.5-4.3,1.5-6.4c0-2.3-0.6-4.1-1.9-5.4c-1.2-1.3-2.8-2-4.8-2c-3,0-5.4,1.4-7.2,4.1
			C108.4,62.2,107.5,65.3,107.5,68.6z"/>
		<path class="st1" d="M131.7,80.2l6.2-29.4h7.9c2.2,0,3.6,0,4.2,0.1c1.2,0.1,2.3,0.4,3.3,0.7c1,0.4,1.8,0.9,2.6,1.6
			c0.8,0.7,1.5,1.5,2,2.4c0.6,1,1,2,1.3,3.3c0.3,1.2,0.5,2.6,0.5,4.1c0,3.2-0.6,6-1.8,8.4c-1.2,2.5-2.7,4.4-4.6,5.8
			c-1.4,1.1-3.2,2-5.4,2.5c-1.3,0.3-3.2,0.4-5.8,0.4L131.7,80.2L131.7,80.2z M138.7,75.5h3.1c2.2,0,3.8-0.1,4.8-0.4s1.9-0.8,2.7-1.5
			c1.2-1.1,2.2-2.5,3-4.3c0.8-1.8,1.2-3.9,1.2-6.4c0-2.1-0.3-3.7-1-4.7s-1.5-1.7-2.5-2.1c-0.7-0.2-1.9-0.4-3.7-0.4h-3.5L138.7,75.5z
			"/>
		<path class="st1" d="M161,80.2l6.2-29.4h6L167,80.2H161z"/>
		<path class="st1" d="M191.9,73.7h-11.7l-3.5,6.5h-6.2l16.6-29.4h6.7l4.8,29.4h-5.7L191.9,73.7z M191.2,68.8L189.5,57l-7.1,11.8
			H191.2z"/>
		<path class="st1" d="M204.2,68.7c0-1.7,0.3-3.6,0.8-5.5c0.7-2.6,1.7-4.8,3.1-6.7c1.4-1.9,3.2-3.4,5.3-4.5s4.5-1.7,7.3-1.7
			c3.6,0,6.6,1.1,8.8,3.4c2.2,2.3,3.4,5.3,3.4,9c0,3.1-0.7,6.1-2.2,9s-3.4,5.1-5.9,6.7s-5.3,2.3-8.5,2.3c-2.7,0-5-0.6-6.9-1.9
			c-1.9-1.2-3.2-2.8-4-4.6C204.6,72.4,204.2,70.6,204.2,68.7z M210.2,68.6c0,2,0.6,3.7,1.8,5.1c1.2,1.4,2.8,2,4.9,2
			c1.6,0,3.2-0.5,4.7-1.6s2.7-2.7,3.7-4.9c1-2.2,1.5-4.3,1.5-6.4c0-2.3-0.6-4.1-1.9-5.4c-1.2-1.3-2.8-2-4.8-2c-3,0-5.4,1.4-7.2,4.1
			C211.1,62.2,210.2,65.3,210.2,68.6z"/>
	</g>
</g>
</svg>
