<?xml version="1.0" encoding="utf-8"?>
<!-- Generator: Adobe Illustrator 22.0.0, SVG Export Plug-In . SVG Version: 6.00 Build 0)  -->
<svg version="1.1" id="图层_1" xmlns="http://www.w3.org/2000/svg" xmlns:xlink="http://www.w3.org/1999/xlink" x="0px" y="0px"
	 viewBox="0 0 365.2 200" style="enable-background:new 0 0 365.2 200;" xml:space="preserve">
<style type="text/css">
	.st0{fill:#FFFFFF;}
</style>
<path class="st0" d="M157.7,97c-2.4-2.3-4.9-4.9-7.1-7.4H65.3L58,97H30.4c7.3-7.4,13.9-14.6,19.7-21.5c-6.8-9.7-12.9-19.9-18.7-30.6
	h22.2c2.7,5,5.7,9.9,8.7,14.7c4.4-6.3,8.3-12.4,11.8-19.1c0.5-1,0.3-1.9-0.2-2.9c-0.6-1-1.6-1.5-2.6-1.5l-40.9-0.3V27h59.4
	c3.1,0,5.8,1.5,7.4,4c1.9,2.6,2.3,5.7,1.1,8.6c-6,13.8-14.6,27.8-25.2,40.9h69.9c-13.1-16.7-24.7-36.7-35.4-58.3h23.9
	c2.3,4.7,4.5,9.2,7.1,13.6l4.2-9.9h21.7c-4.2,10.5-8.4,20.7-13.4,30.1c1.6,2.4,3.1,4.9,4.9,7.1c1.9-4,3.7-8.3,5.5-12.5h21.7
	c-4,10.5-8.6,20.7-13.6,30.3c4.4,5.5,8.9,10.8,13.8,16L157.7,97L157.7,97z M30.7,165.4h25.9L49.3,146h24.4l7.4,19.4h51.6l7.1-19.4
	h24.6l-7.1,19.4h25.7v9.2H30.7V165.4z M42.5,111.1c0-6,4.9-10.8,10.7-10.8h107.4c5.8,0,10.5,4.9,10.5,10.8v19.7
	c0,6.2-4.7,10.8-10.5,10.8H53.2c-5.8,0-10.7-4.7-10.7-10.8V111.1z M146.7,115.6c0-3.2-2.8-6.2-6.2-6.2l-67.3,0
	c-3.4,0-6.2,2.9-6.2,6.2v10.7c0,3.4,2.8,6.2,6.2,6.2h67.3c3.4,0,6.2-2.8,6.2-6.2V115.6z"/>
<path class="st0" d="M206.1,54.1h106.4V41c0-3.4-2.8-6.2-6.2-6.2H200.3v-9.2h126c5.8,0,10.8,5,10.8,10.8v46.3h7.9V92h-64.4v72.3
	c0,6-4.9,10.8-10.7,10.8h-30.6v-9.2H250c3.4,0,6.2-2.8,6.2-6.2l0-67.8h-63.9l0-9.2h120.4V63.4H206.2L206.1,54.1L206.1,54.1z
	 M233.6,134.2c-3.2,15.2-7,28.9-13.1,41.2h-24.9c5.8-12.9,10.7-26.5,13.4-41.2H233.6z M209.1,126.6l-9.2-26.9h24.6l9.2,26.9H209.1z
	 M300.6,126.6l9.2-26.9h24.6l-9.2,26.9H300.6z M325.2,134.2c2.9,14.7,7.6,28.3,13.4,41.2h-24.9c-6.2-12.3-9.9-26-13.1-41.2H325.2z"
	/>
</svg>
