<?xml version="1.0" encoding="utf-8"?>
<!-- Generator: Adobe Illustrator 22.0.0, SVG Export Plug-In . SVG Version: 6.00 Build 0)  -->
<svg version="1.1" id="图层_1" xmlns="http://www.w3.org/2000/svg" xmlns:xlink="http://www.w3.org/1999/xlink" x="0px" y="0px"
	 viewBox="0 0 178.2 280" style="enable-background:new 0 0 178.2 280;" xml:space="preserve">
<style type="text/css">
	.st0{fill:#E7EAEE;}
	.st1{fill:#2775E3;}
	.st2{fill:#54BAFE;}
	.st3{fill:#AF71B4;}
	.st4{fill:#1F95F3;}
	.st5{fill:#92E4FD;}
	.st6{fill:#F3997F;}
	.st7{fill:#3E4173;}
</style>
<polygon class="st0" points="119.5,267.3 133.6,146.4 178.2,146.4 178.2,267.3 "/>
<path class="st1" d="M0,280v-12.7h50.9V280H0z"/>
<path class="st0" d="M0,267.3V146.4h25.5v120.9H0z"/>
<path class="st0" d="M25.4,267.3l38.2-120.9h25.5L50.9,267.3H25.4z"/>
<path class="st0" d="M63.6,267.3L25.5,146.4h25.5l38.2,120.9H63.6z"/>
<polygon class="st0" points="89.1,267.3 89.1,146.4 120.9,146.4 119.5,267.3 "/>
<polygon class="st0" points="89.1,133.6 122.9,12.7 154.7,12.7 120.9,133.6 "/>
<polygon class="st0" points="164.1,133.6 154.7,12.7 178.2,12.7 178.2,133.6 "/>
<polygon class="st0" points="133.6,133.6 57.3,12.7 108.2,12.7 164.1,133.6 "/>
<polygon class="st0" points="63.6,133.6 30.4,12.7 57.3,12.7 89.1,133.6 "/>
<rect y="12.7" class="st0" width="30.4" height="120.9"/>
<polygon class="st0" points="30.4,133.6 120.9,12.7 141.4,12.7 50.9,133.6 "/>
<path class="st2" d="M0,146.4v-12.7h50.9v12.7H0z"/>
<path class="st3" d="M0,12.7V0h108.2v12.7H0z"/>
<path class="st4" d="M63.6,280v-12.7h114.5V280H63.6z"/>
<path class="st5" d="M63.6,146.4v-12.7h57.3v12.7H63.6z"/>
<path class="st6" d="M120.9,12.7V0h57.3v12.7H120.9z"/>
<path class="st7" d="M133.6,146.4v-12.7h44.5v12.7H133.6z"/>
</svg>
