<?xml version="1.0" encoding="utf-8"?>
<!-- Generator: Adobe Illustrator 22.0.0, SVG Export Plug-In . SVG Version: 6.00 Build 0)  -->
<svg version="1.1" id="图层_1" xmlns="http://www.w3.org/2000/svg" xmlns:xlink="http://www.w3.org/1999/xlink" x="0px" y="0px"
	 viewBox="0 0 280 178.2" style="enable-background:new 0 0 280 178.2;" xml:space="preserve">
<style type="text/css">
	.st0{fill:#E7EAEE;}
	.st1{fill:#2775E3;}
	.st2{fill:#54BAFE;}
	.st3{fill:#AF71B4;}
	.st4{fill:#1F95F3;}
	.st5{fill:#92E4FD;}
	.st6{fill:#F3997F;}
	.st7{fill:#3E4173;}
</style>
<polygon class="st0" points="12.7,119.5 133.6,133.6 133.6,178.2 12.7,178.2 "/>
<path class="st1" d="M0,0h12.7v50.9H0V0z"/>
<path class="st0" d="M12.7,0h120.9v25.5H12.7V0z"/>
<path class="st0" d="M12.7,25.4l120.9,38.2v25.5L12.7,50.9V25.4z"/>
<path class="st0" d="M12.7,63.6l120.9-38.2v25.5L12.7,89.1V63.6z"/>
<polygon class="st0" points="12.7,89.1 133.6,89.1 133.6,120.9 12.7,119.5 "/>
<polygon class="st0" points="146.4,89.1 267.3,122.9 267.3,154.7 146.4,120.9 "/>
<polygon class="st0" points="146.4,164.1 267.3,154.7 267.3,178.2 146.4,178.2 "/>
<polygon class="st0" points="146.4,133.6 267.3,57.3 267.3,108.2 146.4,164.1 "/>
<polygon class="st0" points="146.4,63.6 267.3,30.4 267.3,57.3 146.4,89.1 "/>
<rect x="146.4" class="st0" width="120.9" height="30.4"/>
<polygon class="st0" points="146.4,30.4 267.3,120.9 267.3,141.4 146.4,50.9 "/>
<path class="st2" d="M133.6,0h12.7v50.9h-12.7V0z"/>
<path class="st3" d="M267.3,0H280v108.2h-12.7V0z"/>
<path class="st4" d="M0,63.6h12.7v114.5H0V63.6z"/>
<path class="st5" d="M133.6,63.6h12.7v57.3h-12.7V63.6z"/>
<path class="st6" d="M267.3,120.9H280v57.3h-12.7V120.9z"/>
<path class="st7" d="M133.6,133.6h12.7v44.5h-12.7V133.6z"/>
</svg>
