<?xml version="1.0" encoding="utf-8"?>
<!-- Generator: Adobe Illustrator 22.0.0, SVG Export Plug-In . SVG Version: 6.00 Build 0)  -->
<svg version="1.1" id="图层_1" xmlns="http://www.w3.org/2000/svg" xmlns:xlink="http://www.w3.org/1999/xlink" x="0px" y="0px"
	 viewBox="0 0 200 200" style="enable-background:new 0 0 200 200;" xml:space="preserve">
<style type="text/css">
	.st0{fill:#1296DB;}
	.st1{fill:#FFFFFF;}
</style>
<path class="st0" d="M50,0h100c33.3,0,50,16.7,50,50v100c0,33.3-16.7,50-50,50H50c-33.3,0-50-16.7-50-50V50C0,16.7,16.7,0,50,0z"/>
<path class="st1" d="M126.2,109.5v57.1h11v-20.8c17.7,0.3,26.6-0.6,29.1-16.9c0.6-4.6-0.4-9.2-2.8-13.1
	C157.8,107.3,140.2,109.4,126.2,109.5L126.2,109.5z"/>
<path class="st0" d="M137.2,136.2v-16.6c8.2-0.3,16.9-1.3,18.3,5.9C157.9,137.5,146.5,136.5,137.2,136.2L137.2,136.2z"/>
<path class="st1" d="M104.9,109.8c0.1,18.9,0.1,37.9,0.3,56.8h10.8v-57.1C112.3,109.7,108.6,109.7,104.9,109.8L104.9,109.8z"/>
<path class="st1" d="M125.8,33.3c-17,18.5-34.1,36.9-51.2,55.3V33.3H33.4c0.1,3.7,0.1,7.5,0.3,11.2h10v122L166.3,33.3H125.8z"/>
</svg>
