<?xml version="1.0" standalone="no"?><!DOCTYPE svg PUBLIC "-//W3C//DTD SVG 1.1//EN" "http://www.w3.org/Graphics/SVG/1.1/DTD/svg11.dtd"><svg t="1623222378096" class="icon" viewBox="0 0 1024 1024" version="1.1" xmlns="http://www.w3.org/2000/svg" p-id="1782" xmlns:xlink="http://www.w3.org/1999/xlink" width="200" height="200"><defs><style type="text/css"></style></defs><path d="M696.96 0H190.08a63.36 63.36 0 0 0-63.36 63.36v316.8h570.24a63.36 63.36 0 0 1 63.36 63.36v411.84a63.36 63.36 0 0 1-63.36 63.36H126.72v31.68a63.36 63.36 0 0 0 63.36 63.36H950.4a63.36 63.36 0 0 0 63.36-63.36V316.8L696.96 0z" fill="#EAEAEA" p-id="1783"></path><path d="M696.96 0v253.44a63.36 63.36 0 0 0 63.36 63.36h253.44L696.96 0z" fill="#434854" p-id="1784"></path><path d="M760.32 316.8l253.44 253.44V316.8z" opacity=".1" p-id="1785"></path><path d="M696.96 823.68a31.68 31.68 0 0 1-31.68 31.68H31.68A31.68 31.68 0 0 1 0 823.68V475.2a31.68 31.68 0 0 1 31.68-31.68h633.6a31.68 31.68 0 0 1 31.68 31.68v348.48zM91.424 768h44.928l28.704-64.48L193.76 768h44.928l-52.832-107.744 50.336-103.168h-44.928l-26.208 59.904-26.208-59.904H93.92l49.504 103.168-52 107.744z m157.664-296.192v239.616c0 12.48 1.44 22.528 4.352 30.144 2.944 7.648 7.168 13.536 12.704 17.696 5.536 4.448 12.192 7.424 19.968 8.96 7.776 1.504 16.512 2.272 26.208 2.272V730.56c-8.032-0.832-13.504-2.688-16.448-5.6-2.88-2.944-4.352-8.416-4.352-16.448V471.808h-42.432zM405.92 616.16h39.936c0-8.608-1.536-16.704-4.576-24.32a61.504 61.504 0 0 0-12.48-19.776 54.656 54.656 0 0 0-18.912-12.896 61.76 61.76 0 0 0-23.936-4.576c-8.608 0-16.64 1.44-24.128 4.384a56.032 56.032 0 0 0-19.552 12.672 61.216 61.216 0 0 0-18.72 44.512c0 14.144 3.84 26.144 11.456 35.968 7.616 9.856 18.08 17.28 31.392 22.272l20.384 7.488c8.032 3.04 13.6 6.656 16.64 10.816A24.64 24.64 0 0 1 408 707.68c0 7.2-2.432 12.8-7.264 16.864a25.088 25.088 0 0 1-16.448 6.016c-8.032 0-13.664-2.496-16.864-7.488a40.416 40.416 0 0 1-6.016-16.224h-39.936c0.288 10.56 2.24 19.744 5.824 27.648 3.616 7.936 8.32 14.496 14.144 19.776 11.648 10.816 26.08 16.224 43.264 16.224 9.152 0 17.6-1.664 25.376-4.992 7.776-3.328 14.4-7.904 19.968-13.728 5.536-5.824 9.92-12.544 13.12-20.16 3.2-7.648 4.768-15.904 4.768-24.768 0-12.48-2.976-24-8.96-34.528-5.952-10.56-16.832-18.88-32.64-24.96l-24.96-9.984c-8.032-3.04-13.024-6.432-14.976-10.208a24.608 24.608 0 0 1-2.912-11.424c0-5.536 1.792-10.464 5.408-14.784 3.616-4.288 8.736-6.432 15.392-6.432 5.536 0 10.464 1.792 14.752 5.408 4.32 3.616 6.592 9.024 6.88 16.224zM453.344 768h44.928l28.704-64.48L555.68 768h44.928l-52.832-107.744 50.336-103.168h-44.928l-26.208 59.904-26.208-59.904H455.84l49.504 103.168-52 107.744z" fill="#FFB929" p-id="1786"></path></svg>