<?xml version="1.0" encoding="utf-8"?>
<!-- Generator: Adobe Illustrator 22.0.0, SVG Export Plug-In . SVG Version: 6.00 Build 0)  -->
<svg version="1.1" id="图层_1" xmlns="http://www.w3.org/2000/svg" xmlns:xlink="http://www.w3.org/1999/xlink" x="0px" y="0px"
	 viewBox="0 0 174.4 142.2" style="enable-background:new 0 0 174.4 142.2;" xml:space="preserve">
<style type="text/css">
	.st0{fill:#819292;}
	.st1{fill:#D73949;}
	.st2{fill:#D97B24;}
	.st3{fill:#159A8D;}
</style>
<path class="st0" d="M7.2,134.9V0H0v142.2h174.4v-7.4H7.2z"/>
<path class="st1" d="M15.6,92.5c0,8.9,7.1,16.2,15.9,16.2s15.9-7.2,15.9-16.2c0,0,0,0,0,0c0-8.9-7.1-16.2-15.9-16.2
	S15.6,83.6,15.6,92.5z"/>
<path class="st2" d="M84.3,48.7c0,6.2,5,11.3,11.1,11.3c6.1,0,11.1-5.1,11.1-11.3c0,0,0,0,0,0c0-6.2-5-11.3-11.1-11.3
	C89.3,37.4,84.3,42.4,84.3,48.7C84.3,48.7,84.3,48.7,84.3,48.7z"/>
<path class="st3" d="M131.3,101.7c0,7.1,5.6,12.8,12.5,12.8c6.9,0,12.6-5.7,12.6-12.8c0,0,0,0,0,0c0-7.1-5.6-12.8-12.6-12.8
	C136.9,88.9,131.3,94.6,131.3,101.7L131.3,101.7z"/>
<path class="st2" d="M11.6,121.5c0,3.7,3,6.7,6.6,6.7c3.6,0,6.6-3,6.6-6.7c0,0,0,0,0,0c0-3.7-3-6.7-6.6-6.7
	C14.6,114.8,11.6,117.8,11.6,121.5C11.6,121.5,11.6,121.5,11.6,121.5z"/>
<path class="st2" d="M159,69.1c0,1.9,1.5,3.4,3.3,3.4s3.3-1.5,3.3-3.4c0-1.9-1.5-3.4-3.3-3.4S159,67.2,159,69.1z"/>
<path class="st1" d="M136.1,64.1c0,2.1,1.7,3.9,3.8,3.9c2.1,0,3.8-1.7,3.8-3.9c0,0,0,0,0,0c0-2.1-1.7-3.9-3.8-3.9
	C137.8,60.2,136.1,62,136.1,64.1C136.1,64.1,136.1,64.1,136.1,64.1z"/>
<path class="st1" d="M53.2,34.3c0,2.8,2.2,5,4.9,5c2.7,0,4.9-2.2,4.9-5c0,0,0,0,0,0c0-2.8-2.2-5-4.9-5
	C55.4,29.4,53.2,31.6,53.2,34.3C53.2,34.3,53.2,34.3,53.2,34.3z"/>
<path class="st1" d="M106.6,78.5c0,2.6,2,4.6,4.5,4.6c2.5,0,4.5-2.1,4.5-4.6c0-2.6-2-4.6-4.5-4.6C108.6,73.9,106.6,75.9,106.6,78.5z
	"/>
<path class="st3" d="M64.6,78.3c0,2.5,2,4.5,4.4,4.5c2.4,0,4.4-2,4.4-4.5c0,0,0,0,0,0c0-2.5-2-4.5-4.4-4.5S64.6,75.8,64.6,78.3
	C64.6,78.3,64.6,78.3,64.6,78.3z"/>
<path class="st3" d="M48.7,56.4c0,2,1.6,3.6,3.5,3.6s3.5-1.6,3.5-3.6l0,0c0-2-1.6-3.6-3.5-3.6S48.7,54.4,48.7,56.4z"/>
<path class="st1" d="M85.7,98.6c0,1.9,1.5,3.4,3.3,3.4c1.8,0,3.3-1.5,3.3-3.4c0-1.9-1.5-3.4-3.3-3.4C87.2,95.2,85.7,96.7,85.7,98.6
	C85.7,98.6,85.7,98.6,85.7,98.6z"/>
</svg>
